<?xml version="1.0" encoding="UTF-8" standalone="no"?>
<!DOCTYPE svg PUBLIC "-//W3C//DTD SVG 1.1//EN"
 "http://www.w3.org/Graphics/SVG/1.1/DTD/svg11.dtd">
<!-- Generated by graphviz version 2.40.1 (20161225.0304)
 -->
<!-- Title: public.person Pages: 1 -->
<svg width="573pt" height="562pt"
 viewBox="0.00 0.00 572.50 562.00" xmlns="http://www.w3.org/2000/svg" xmlns:xlink="http://www.w3.org/1999/xlink">
<g id="graph0" class="graph" transform="scale(1 1) rotate(0) translate(4 558)">
<title>public.person</title>
<polygon fill="#ffffff" stroke="transparent" points="-4,4 -4,-558 568.5,-558 568.5,4 -4,4"/>
<!-- public.person -->
<g id="node1" class="node">
<title>public.person</title>
<polygon fill="#efefef" stroke="transparent" points="250,-195.5 250,-230.5 519,-230.5 519,-195.5 250,-195.5"/>
<polygon fill="none" stroke="#000000" points="250,-195.5 250,-230.5 519,-230.5 519,-195.5 250,-195.5"/>
<text text-anchor="start" x="267.2029" y="-208.3" font-family="Arial Bold" font-size="18.00" fill="#000000">public.person</text>
<text text-anchor="start" x="374.2291" y="-208.3" font-family="Arial" font-size="14.00" fill="#000000">    </text>
<text text-anchor="start" x="408.4339" y="-208.3" font-family="Arial" font-size="14.00" fill="#666666">[BASE TABLE]</text>
<polygon fill="none" stroke="#000000" points="250,-165.5 250,-195.5 519,-195.5 519,-165.5 250,-165.5"/>
<text text-anchor="start" x="257" y="-176.9" font-family="Arial" font-size="14.00" fill="#000000">id </text>
<text text-anchor="start" x="271.7798" y="-176.9" font-family="Arial" font-size="14.00" fill="#666666">[uuid]</text>
<polygon fill="none" stroke="#000000" points="250,-135.5 250,-165.5 519,-165.5 519,-135.5 250,-135.5"/>
<text text-anchor="start" x="256.9159" y="-146.9" font-family="Arial" font-size="14.00" fill="#000000">created_at </text>
<text text-anchor="start" x="326.9439" y="-146.9" font-family="Arial" font-size="14.00" fill="#666666">[timestamp without time zone]</text>
<polygon fill="none" stroke="#000000" points="250,-105.5 250,-135.5 519,-135.5 519,-105.5 250,-105.5"/>
<text text-anchor="start" x="257" y="-116.9" font-family="Arial" font-size="14.00" fill="#000000">name </text>
<text text-anchor="start" x="295.899" y="-116.9" font-family="Arial" font-size="14.00" fill="#666666">[varchar(255)]</text>
<polygon fill="none" stroke="#000000" points="250,-75.5 250,-105.5 519,-105.5 519,-75.5 250,-75.5"/>
<text text-anchor="start" x="257" y="-86.9" font-family="Arial" font-size="14.00" fill="#000000">surname </text>
<text text-anchor="start" x="315.3422" y="-86.9" font-family="Arial" font-size="14.00" fill="#666666">[varchar(255)]</text>
<polygon fill="none" stroke="#000000" points="250,-45.5 250,-75.5 519,-75.5 519,-45.5 250,-45.5"/>
<text text-anchor="start" x="257" y="-56.9" font-family="Arial" font-size="14.00" fill="#000000">email </text>
<text text-anchor="start" x="294.3296" y="-56.9" font-family="Arial" font-size="14.00" fill="#666666">[varchar(255)]</text>
<polygon fill="none" stroke="#000000" stroke-width="3" points="248,-44.5 248,-232.5 520,-232.5 520,-44.5 248,-44.5"/>
</g>
<!-- public.relations -->
<g id="node2" class="node">
<title>public.relations</title>
<polygon fill="#efefef" stroke="transparent" points="254,-475.5 254,-510.5 515,-510.5 515,-475.5 254,-475.5"/>
<polygon fill="none" stroke="#000000" points="254,-475.5 254,-510.5 515,-510.5 515,-475.5 254,-475.5"/>
<text text-anchor="start" x="260.7076" y="-488.3" font-family="Arial Bold" font-size="18.00" fill="#000000">public.relations</text>
<text text-anchor="start" x="380.7244" y="-488.3" font-family="Arial" font-size="14.00" fill="#000000">    </text>
<text text-anchor="start" x="414.9292" y="-488.3" font-family="Arial" font-size="14.00" fill="#666666">[BASE TABLE]</text>
<polygon fill="none" stroke="#000000" points="254,-445.5 254,-475.5 515,-475.5 515,-445.5 254,-445.5"/>
<text text-anchor="start" x="261" y="-456.9" font-family="Arial" font-size="14.00" fill="#000000">uuid    </text>
<text text-anchor="start" x="321.6592" y="-456.9" font-family="Arial" font-size="14.00" fill="#666666">[uuid]</text>
<polygon fill="none" stroke="#000000" points="254,-415.5 254,-445.5 515,-445.5 515,-415.5 254,-415.5"/>
<text text-anchor="start" x="261" y="-426.9" font-family="Arial" font-size="14.00" fill="#000000">role    </text>
<text text-anchor="start" x="318.5372" y="-426.9" font-family="Arial" font-size="14.00" fill="#666666">[role_type]</text>
<polygon fill="none" stroke="#000000" points="254,-385.5 254,-415.5 515,-415.5 515,-385.5 254,-385.5"/>
<text text-anchor="start" x="261" y="-396.9" font-family="Arial" font-size="14.00" fill="#000000">person_id    </text>
<text text-anchor="start" x="356.6676" y="-396.9" font-family="Arial" font-size="14.00" fill="#666666">[uuid]</text>
<polygon fill="none" stroke="#000000" points="254,-355.5 254,-385.5 515,-385.5 515,-355.5 254,-355.5"/>
<text text-anchor="start" x="261" y="-366.9" font-family="Arial" font-size="14.00" fill="#000000">class_code    </text>
<text text-anchor="start" x="365.2244" y="-366.9" font-family="Arial" font-size="14.00" fill="#666666">[varchar(5)]</text>
</g>
<!-- public.relations&#45;&gt;public.person -->
<g id="edge1" class="edge">
<title>public.relations:person_id&#45;&gt;public.person:id</title>
<path fill="none" stroke="#000000" d="M244.3545,-397.39C204.802,-370.6501 204.5411,-180.5 250,-180.5"/>
<polygon fill="#000000" stroke="#000000" points="244.4825,-397.4312 252.619,-404.7829 249.2412,-398.9656 254,-400.5 254,-400.5 254,-400.5 249.2412,-398.9656 255.381,-396.2171 244.4825,-397.4312 244.4825,-397.4312"/>
<text text-anchor="start" x="6.7165" y="-410.5" font-family="Arial" font-size="10.00" fill="#000000">FOREIGN KEY (person_id) REFERENCES person(id)</text>
</g>
</g>
</svg>
