<?xml version="1.0" encoding="UTF-8" standalone="no"?>
<!DOCTYPE svg PUBLIC "-//W3C//DTD SVG 1.1//EN"
 "http://www.w3.org/Graphics/SVG/1.1/DTD/svg11.dtd">
<!-- Generated by graphviz version 2.40.1 (20161225.0304)
 -->
<!-- Title: public.class Pages: 1 -->
<svg width="449pt" height="502pt"
 viewBox="0.00 0.00 448.50 502.00" xmlns="http://www.w3.org/2000/svg" xmlns:xlink="http://www.w3.org/1999/xlink">
<g id="graph0" class="graph" transform="scale(1 1) rotate(0) translate(4 498)">
<title>public.class</title>
<polygon fill="#ffffff" stroke="transparent" points="-4,4 -4,-498 444.5,-498 444.5,4 -4,4"/>
<!-- public.class -->
<g id="node1" class="node">
<title>public.class</title>
<polygon fill="#efefef" stroke="transparent" points="57.5,-135.5 57.5,-170.5 291.5,-170.5 291.5,-135.5 57.5,-135.5"/>
<polygon fill="none" stroke="#000000" points="57.5,-135.5 57.5,-170.5 291.5,-170.5 291.5,-135.5 57.5,-135.5"/>
<text text-anchor="start" x="64.2112" y="-148.3" font-family="Arial Bold" font-size="18.00" fill="#000000">public.class</text>
<text text-anchor="start" x="157.2208" y="-148.3" font-family="Arial" font-size="14.00" fill="#000000">    </text>
<text text-anchor="start" x="191.4256" y="-148.3" font-family="Arial" font-size="14.00" fill="#666666">[BASE TABLE]</text>
<polygon fill="none" stroke="#000000" points="57.5,-105.5 57.5,-135.5 291.5,-135.5 291.5,-105.5 57.5,-105.5"/>
<text text-anchor="start" x="64.5" y="-116.9" font-family="Arial" font-size="14.00" fill="#000000">code </text>
<text text-anchor="start" x="98.7384" y="-116.9" font-family="Arial" font-size="14.00" fill="#666666">[varchar(5)]</text>
<polygon fill="none" stroke="#000000" points="57.5,-75.5 57.5,-105.5 291.5,-105.5 291.5,-75.5 57.5,-75.5"/>
<text text-anchor="start" x="64.5" y="-86.9" font-family="Arial" font-size="14.00" fill="#000000">name </text>
<text text-anchor="start" x="103.399" y="-86.9" font-family="Arial" font-size="14.00" fill="#666666">[varchar(255)]</text>
<polygon fill="none" stroke="#000000" points="57.5,-45.5 57.5,-75.5 291.5,-75.5 291.5,-45.5 57.5,-45.5"/>
<text text-anchor="start" x="64.5" y="-56.9" font-family="Arial" font-size="14.00" fill="#000000">credits </text>
<text text-anchor="start" x="109.6136" y="-56.9" font-family="Arial" font-size="14.00" fill="#666666">[integer]</text>
<polygon fill="none" stroke="#000000" stroke-width="3" points="56,-44.5 56,-172.5 293,-172.5 293,-44.5 56,-44.5"/>
</g>
<!-- public.relations -->
<g id="node2" class="node">
<title>public.relations</title>
<polygon fill="#efefef" stroke="transparent" points="43.5,-415.5 43.5,-450.5 304.5,-450.5 304.5,-415.5 43.5,-415.5"/>
<polygon fill="none" stroke="#000000" points="43.5,-415.5 43.5,-450.5 304.5,-450.5 304.5,-415.5 43.5,-415.5"/>
<text text-anchor="start" x="50.2076" y="-428.3" font-family="Arial Bold" font-size="18.00" fill="#000000">public.relations</text>
<text text-anchor="start" x="170.2244" y="-428.3" font-family="Arial" font-size="14.00" fill="#000000">    </text>
<text text-anchor="start" x="204.4292" y="-428.3" font-family="Arial" font-size="14.00" fill="#666666">[BASE TABLE]</text>
<polygon fill="none" stroke="#000000" points="43.5,-385.5 43.5,-415.5 304.5,-415.5 304.5,-385.5 43.5,-385.5"/>
<text text-anchor="start" x="50.5" y="-396.9" font-family="Arial" font-size="14.00" fill="#000000">uuid    </text>
<text text-anchor="start" x="111.1592" y="-396.9" font-family="Arial" font-size="14.00" fill="#666666">[uuid]</text>
<polygon fill="none" stroke="#000000" points="43.5,-355.5 43.5,-385.5 304.5,-385.5 304.5,-355.5 43.5,-355.5"/>
<text text-anchor="start" x="50.5" y="-366.9" font-family="Arial" font-size="14.00" fill="#000000">role    </text>
<text text-anchor="start" x="108.0372" y="-366.9" font-family="Arial" font-size="14.00" fill="#666666">[role_type]</text>
<polygon fill="none" stroke="#000000" points="43.5,-325.5 43.5,-355.5 304.5,-355.5 304.5,-325.5 43.5,-325.5"/>
<text text-anchor="start" x="50.5" y="-336.9" font-family="Arial" font-size="14.00" fill="#000000">person_id    </text>
<text text-anchor="start" x="146.1676" y="-336.9" font-family="Arial" font-size="14.00" fill="#666666">[uuid]</text>
<polygon fill="none" stroke="#000000" points="43.5,-295.5 43.5,-325.5 304.5,-325.5 304.5,-295.5 43.5,-295.5"/>
<text text-anchor="start" x="50.5" y="-306.9" font-family="Arial" font-size="14.00" fill="#000000">class_code    </text>
<text text-anchor="start" x="154.7244" y="-306.9" font-family="Arial" font-size="14.00" fill="#666666">[varchar(5)]</text>
</g>
<!-- public.relations&#45;&gt;public.class -->
<g id="edge1" class="edge">
<title>public.relations:class_code&#45;&gt;public.class:code</title>
<path fill="none" stroke="#000000" d="M173.6277,-285.5036C164.4415,-237.1695 85.2396,-269.0163 57.5,-217 37.3184,-179.1561 14.6111,-120.5 57.5,-120.5"/>
<polygon fill="#000000" stroke="#000000" points="173.6306,-285.5379 170.017,-295.8912 174.0653,-290.5189 174.5,-295.5 174.5,-295.5 174.5,-295.5 174.0653,-290.5189 178.983,-295.1088 173.6306,-285.5379 173.6306,-285.5379"/>
<text text-anchor="start" x="181.1045" y="-305.5" font-family="Arial" font-size="10.00" fill="#000000">FOREIGN KEY (class_code) REFERENCES class(code)</text>
</g>
</g>
</svg>
