<?xml version="1.0" encoding="UTF-8" standalone="no"?>
<!DOCTYPE svg PUBLIC "-//W3C//DTD SVG 1.1//EN"
 "http://www.w3.org/Graphics/SVG/1.1/DTD/svg11.dtd">
<!-- Generated by graphviz version 2.40.1 (20161225.0304)
 -->
<!-- Title: public.relations Pages: 1 -->
<svg width="789pt" height="562pt"
 viewBox="0.00 0.00 789.00 562.00" xmlns="http://www.w3.org/2000/svg" xmlns:xlink="http://www.w3.org/1999/xlink">
<g id="graph0" class="graph" transform="scale(1 1) rotate(0) translate(4 558)">
<title>public.relations</title>
<polygon fill="#ffffff" stroke="transparent" points="-4,4 -4,-558 785,-558 785,4 -4,4"/>
<!-- public.relations -->
<g id="node1" class="node">
<title>public.relations</title>
<polygon fill="#efefef" stroke="transparent" points="254,-472.5 254,-507.5 515,-507.5 515,-472.5 254,-472.5"/>
<polygon fill="none" stroke="#000000" points="254,-472.5 254,-507.5 515,-507.5 515,-472.5 254,-472.5"/>
<text text-anchor="start" x="260.7076" y="-485.3" font-family="Arial Bold" font-size="18.00" fill="#000000">public.relations</text>
<text text-anchor="start" x="380.7244" y="-485.3" font-family="Arial" font-size="14.00" fill="#000000">    </text>
<text text-anchor="start" x="414.9292" y="-485.3" font-family="Arial" font-size="14.00" fill="#666666">[BASE TABLE]</text>
<polygon fill="none" stroke="#000000" points="254,-442.5 254,-472.5 515,-472.5 515,-442.5 254,-442.5"/>
<text text-anchor="start" x="261" y="-453.9" font-family="Arial" font-size="14.00" fill="#000000">uuid </text>
<text text-anchor="start" x="291.345" y="-453.9" font-family="Arial" font-size="14.00" fill="#666666">[uuid]</text>
<polygon fill="none" stroke="#000000" points="254,-412.5 254,-442.5 515,-442.5 515,-412.5 254,-412.5"/>
<text text-anchor="start" x="261" y="-423.9" font-family="Arial" font-size="14.00" fill="#000000">role </text>
<text text-anchor="start" x="288.223" y="-423.9" font-family="Arial" font-size="14.00" fill="#666666">[role_type]</text>
<polygon fill="none" stroke="#000000" points="254,-382.5 254,-412.5 515,-412.5 515,-382.5 254,-382.5"/>
<text text-anchor="start" x="261" y="-393.9" font-family="Arial" font-size="14.00" fill="#000000">person_id </text>
<text text-anchor="start" x="326.3534" y="-393.9" font-family="Arial" font-size="14.00" fill="#666666">[uuid]</text>
<polygon fill="none" stroke="#000000" points="254,-352.5 254,-382.5 515,-382.5 515,-352.5 254,-352.5"/>
<text text-anchor="start" x="261" y="-363.9" font-family="Arial" font-size="14.00" fill="#000000">class_code </text>
<text text-anchor="start" x="334.9102" y="-363.9" font-family="Arial" font-size="14.00" fill="#666666">[varchar(5)]</text>
<polygon fill="none" stroke="#000000" stroke-width="3" points="252,-351.5 252,-509.5 516,-509.5 516,-351.5 252,-351.5"/>
</g>
<!-- public.person -->
<g id="node2" class="node">
<title>public.person</title>
<polygon fill="#efefef" stroke="transparent" points="50,-192.5 50,-227.5 349,-227.5 349,-192.5 50,-192.5"/>
<polygon fill="none" stroke="#000000" points="50,-192.5 50,-227.5 349,-227.5 349,-192.5 50,-192.5"/>
<text text-anchor="start" x="82.2029" y="-205.3" font-family="Arial Bold" font-size="18.00" fill="#000000">public.person</text>
<text text-anchor="start" x="189.2291" y="-205.3" font-family="Arial" font-size="14.00" fill="#000000">    </text>
<text text-anchor="start" x="223.4339" y="-205.3" font-family="Arial" font-size="14.00" fill="#666666">[BASE TABLE]</text>
<polygon fill="none" stroke="#000000" points="50,-162.5 50,-192.5 349,-192.5 349,-162.5 50,-162.5"/>
<text text-anchor="start" x="57" y="-173.9" font-family="Arial" font-size="14.00" fill="#000000">id    </text>
<text text-anchor="start" x="102.094" y="-173.9" font-family="Arial" font-size="14.00" fill="#666666">[uuid]</text>
<polygon fill="none" stroke="#000000" points="50,-132.5 50,-162.5 349,-162.5 349,-132.5 50,-132.5"/>
<text text-anchor="start" x="56.7588" y="-143.9" font-family="Arial" font-size="14.00" fill="#000000">created_at    </text>
<text text-anchor="start" x="157.101" y="-143.9" font-family="Arial" font-size="14.00" fill="#666666">[timestamp without time zone]</text>
<polygon fill="none" stroke="#000000" points="50,-102.5 50,-132.5 349,-132.5 349,-102.5 50,-102.5"/>
<text text-anchor="start" x="57" y="-113.9" font-family="Arial" font-size="14.00" fill="#000000">name    </text>
<text text-anchor="start" x="126.2132" y="-113.9" font-family="Arial" font-size="14.00" fill="#666666">[varchar(255)]</text>
<polygon fill="none" stroke="#000000" points="50,-72.5 50,-102.5 349,-102.5 349,-72.5 50,-72.5"/>
<text text-anchor="start" x="57" y="-83.9" font-family="Arial" font-size="14.00" fill="#000000">surname    </text>
<text text-anchor="start" x="145.6564" y="-83.9" font-family="Arial" font-size="14.00" fill="#666666">[varchar(255)]</text>
<polygon fill="none" stroke="#000000" points="50,-42.5 50,-72.5 349,-72.5 349,-42.5 50,-42.5"/>
<text text-anchor="start" x="57" y="-53.9" font-family="Arial" font-size="14.00" fill="#000000">email    </text>
<text text-anchor="start" x="124.6438" y="-53.9" font-family="Arial" font-size="14.00" fill="#666666">[varchar(255)]</text>
</g>
<!-- public.relations&#45;&gt;public.person -->
<g id="edge1" class="edge">
<title>public.relations:person_id&#45;&gt;public.person:id</title>
<path fill="none" stroke="#000000" d="M243.8153,-395.9338C217.2225,-386.5207 233.3786,-336.8669 254,-307 279.6543,-269.8439 323.3457,-308.1561 349,-271 372.6108,-236.8036 390.5556,-177.5 349,-177.5"/>
<polygon fill="#000000" stroke="#000000" points="244.1162,-395.98 253.316,-401.9477 249.0581,-396.74 254,-397.5 254,-397.5 254,-397.5 249.0581,-396.74 254.684,-393.0523 244.1162,-395.98 244.1162,-395.98"/>
<text text-anchor="start" x="6.7165" y="-407.5" font-family="Arial" font-size="10.00" fill="#000000">FOREIGN KEY (person_id) REFERENCES person(id)</text>
</g>
<!-- public.class -->
<g id="node3" class="node">
<title>public.class</title>
<polygon fill="#efefef" stroke="transparent" points="453,-162.5 453,-197.5 687,-197.5 687,-162.5 453,-162.5"/>
<polygon fill="none" stroke="#000000" points="453,-162.5 453,-197.5 687,-197.5 687,-162.5 453,-162.5"/>
<text text-anchor="start" x="459.7112" y="-175.3" font-family="Arial Bold" font-size="18.00" fill="#000000">public.class</text>
<text text-anchor="start" x="552.7208" y="-175.3" font-family="Arial" font-size="14.00" fill="#000000">    </text>
<text text-anchor="start" x="586.9256" y="-175.3" font-family="Arial" font-size="14.00" fill="#666666">[BASE TABLE]</text>
<polygon fill="none" stroke="#000000" points="453,-132.5 453,-162.5 687,-162.5 687,-132.5 453,-132.5"/>
<text text-anchor="start" x="460" y="-143.9" font-family="Arial" font-size="14.00" fill="#000000">code    </text>
<text text-anchor="start" x="524.5526" y="-143.9" font-family="Arial" font-size="14.00" fill="#666666">[varchar(5)]</text>
<polygon fill="none" stroke="#000000" points="453,-102.5 453,-132.5 687,-132.5 687,-102.5 453,-102.5"/>
<text text-anchor="start" x="460" y="-113.9" font-family="Arial" font-size="14.00" fill="#000000">name    </text>
<text text-anchor="start" x="529.2132" y="-113.9" font-family="Arial" font-size="14.00" fill="#666666">[varchar(255)]</text>
<polygon fill="none" stroke="#000000" points="453,-72.5 453,-102.5 687,-102.5 687,-72.5 453,-72.5"/>
<text text-anchor="start" x="460" y="-83.9" font-family="Arial" font-size="14.00" fill="#000000">credits    </text>
<text text-anchor="start" x="535.4278" y="-83.9" font-family="Arial" font-size="14.00" fill="#666666">[integer]</text>
</g>
<!-- public.relations&#45;&gt;public.class -->
<g id="edge2" class="edge">
<title>public.relations:class_code&#45;&gt;public.class:code</title>
<path fill="none" stroke="#000000" d="M524.9164,-364.8365C536.5054,-356.1341 523.2763,-327.8983 515,-307 500.1811,-269.5814 467.8189,-278.4186 453,-241 437.699,-202.364 411.4444,-147.5 453,-147.5"/>
<polygon fill="#000000" stroke="#000000" points="524.6577,-364.9059 513.8327,-363.154 519.8289,-366.203 515,-367.5 515,-367.5 515,-367.5 519.8289,-366.203 516.1673,-371.846 524.6577,-364.9059 524.6577,-364.9059"/>
<text text-anchor="start" x="521.6045" y="-377.5" font-family="Arial" font-size="10.00" fill="#000000">FOREIGN KEY (class_code) REFERENCES class(code)</text>
</g>
</g>
</svg>
