<?xml version="1.0" encoding="UTF-8" standalone="no"?>
<!DOCTYPE svg PUBLIC "-//W3C//DTD SVG 1.1//EN"
 "http://www.w3.org/Graphics/SVG/1.1/DTD/svg11.dtd">
<!-- Generated by graphviz version 2.40.1 (20161225.0304)
 -->
<!-- Title: sqlc Pages: 1 -->
<svg width="1549pt" height="556pt"
 viewBox="0.00 0.00 1548.50 556.00" xmlns="http://www.w3.org/2000/svg" xmlns:xlink="http://www.w3.org/1999/xlink">
<g id="graph0" class="graph" transform="scale(1 1) rotate(0) translate(4 552)">
<title>sqlc</title>
<polygon fill="#ffffff" stroke="transparent" points="-4,4 -4,-552 1544.5,-552 1544.5,4 -4,4"/>
<!-- public.schema_migrations -->
<g id="node1" class="node">
<title>public.schema_migrations</title>
<polygon fill="#efefef" stroke="transparent" points="43.5,-439.5 43.5,-474.5 392.5,-474.5 392.5,-439.5 43.5,-439.5"/>
<polygon fill="none" stroke="#000000" points="43.5,-439.5 43.5,-474.5 392.5,-474.5 392.5,-439.5 43.5,-439.5"/>
<text text-anchor="start" x="50.203" y="-452.3" font-family="Arial Bold" font-size="18.00" fill="#000000">public.schema_migrations</text>
<text text-anchor="start" x="258.229" y="-452.3" font-family="Arial" font-size="14.00" fill="#000000">    </text>
<text text-anchor="start" x="292.4338" y="-452.3" font-family="Arial" font-size="14.00" fill="#666666">[BASE TABLE]</text>
<polygon fill="none" stroke="#000000" points="43.5,-409.5 43.5,-439.5 392.5,-439.5 392.5,-409.5 43.5,-409.5"/>
<text text-anchor="start" x="50.5" y="-420.9" font-family="Arial" font-size="14.00" fill="#000000">version    </text>
<text text-anchor="start" x="129.8198" y="-420.9" font-family="Arial" font-size="14.00" fill="#666666">[bigint]</text>
<polygon fill="none" stroke="#000000" points="43.5,-379.5 43.5,-409.5 392.5,-409.5 392.5,-379.5 43.5,-379.5"/>
<text text-anchor="start" x="50.5" y="-390.9" font-family="Arial" font-size="14.00" fill="#000000">dirty    </text>
<text text-anchor="start" x="111.1452" y="-390.9" font-family="Arial" font-size="14.00" fill="#666666">[boolean]</text>
</g>
<!-- public.schema_migrations_history -->
<g id="node2" class="node">
<title>public.schema_migrations_history</title>
<polygon fill="#efefef" stroke="transparent" points="496.5,-454.5 496.5,-489.5 908.5,-489.5 908.5,-454.5 496.5,-454.5"/>
<polygon fill="none" stroke="#000000" points="496.5,-454.5 496.5,-489.5 908.5,-489.5 908.5,-454.5 496.5,-454.5"/>
<text text-anchor="start" x="503.1994" y="-467.3" font-family="Arial Bold" font-size="18.00" fill="#000000">public.schema_migrations_history</text>
<text text-anchor="start" x="774.2326" y="-467.3" font-family="Arial" font-size="14.00" fill="#000000">    </text>
<text text-anchor="start" x="808.4374" y="-467.3" font-family="Arial" font-size="14.00" fill="#666666">[BASE TABLE]</text>
<polygon fill="none" stroke="#000000" points="496.5,-424.5 496.5,-454.5 908.5,-454.5 908.5,-424.5 496.5,-424.5"/>
<text text-anchor="start" x="503.5" y="-435.9" font-family="Arial" font-size="14.00" fill="#000000">id    </text>
<text text-anchor="start" x="548.594" y="-435.9" font-family="Arial" font-size="14.00" fill="#666666">[integer]</text>
<polygon fill="none" stroke="#000000" points="496.5,-394.5 496.5,-424.5 908.5,-424.5 908.5,-394.5 496.5,-394.5"/>
<text text-anchor="start" x="503.5" y="-405.9" font-family="Arial" font-size="14.00" fill="#000000">version    </text>
<text text-anchor="start" x="582.8198" y="-405.9" font-family="Arial" font-size="14.00" fill="#666666">[bigint]</text>
<polygon fill="none" stroke="#000000" points="496.5,-364.5 496.5,-394.5 908.5,-394.5 908.5,-364.5 496.5,-364.5"/>
<text text-anchor="start" x="503.5" y="-375.9" font-family="Arial" font-size="14.00" fill="#000000">applied_at    </text>
<text text-anchor="start" x="602.2868" y="-375.9" font-family="Arial" font-size="14.00" fill="#666666">[timestamp without time zone]</text>
</g>
<!-- public.person -->
<g id="node3" class="node">
<title>public.person</title>
<polygon fill="#efefef" stroke="transparent" points="809.5,-192.5 809.5,-227.5 1108.5,-227.5 1108.5,-192.5 809.5,-192.5"/>
<polygon fill="none" stroke="#000000" points="809.5,-192.5 809.5,-227.5 1108.5,-227.5 1108.5,-192.5 809.5,-192.5"/>
<text text-anchor="start" x="841.7029" y="-205.3" font-family="Arial Bold" font-size="18.00" fill="#000000">public.person</text>
<text text-anchor="start" x="948.7291" y="-205.3" font-family="Arial" font-size="14.00" fill="#000000">    </text>
<text text-anchor="start" x="982.9339" y="-205.3" font-family="Arial" font-size="14.00" fill="#666666">[BASE TABLE]</text>
<polygon fill="none" stroke="#000000" points="809.5,-162.5 809.5,-192.5 1108.5,-192.5 1108.5,-162.5 809.5,-162.5"/>
<text text-anchor="start" x="816.5" y="-173.9" font-family="Arial" font-size="14.00" fill="#000000">id    </text>
<text text-anchor="start" x="861.594" y="-173.9" font-family="Arial" font-size="14.00" fill="#666666">[uuid]</text>
<polygon fill="none" stroke="#000000" points="809.5,-132.5 809.5,-162.5 1108.5,-162.5 1108.5,-132.5 809.5,-132.5"/>
<text text-anchor="start" x="816.2588" y="-143.9" font-family="Arial" font-size="14.00" fill="#000000">created_at    </text>
<text text-anchor="start" x="916.601" y="-143.9" font-family="Arial" font-size="14.00" fill="#666666">[timestamp without time zone]</text>
<polygon fill="none" stroke="#000000" points="809.5,-102.5 809.5,-132.5 1108.5,-132.5 1108.5,-102.5 809.5,-102.5"/>
<text text-anchor="start" x="816.5" y="-113.9" font-family="Arial" font-size="14.00" fill="#000000">name    </text>
<text text-anchor="start" x="885.7132" y="-113.9" font-family="Arial" font-size="14.00" fill="#666666">[varchar(255)]</text>
<polygon fill="none" stroke="#000000" points="809.5,-72.5 809.5,-102.5 1108.5,-102.5 1108.5,-72.5 809.5,-72.5"/>
<text text-anchor="start" x="816.5" y="-83.9" font-family="Arial" font-size="14.00" fill="#000000">surname    </text>
<text text-anchor="start" x="905.1564" y="-83.9" font-family="Arial" font-size="14.00" fill="#666666">[varchar(255)]</text>
<polygon fill="none" stroke="#000000" points="809.5,-42.5 809.5,-72.5 1108.5,-72.5 1108.5,-42.5 809.5,-42.5"/>
<text text-anchor="start" x="816.5" y="-53.9" font-family="Arial" font-size="14.00" fill="#000000">email    </text>
<text text-anchor="start" x="884.1438" y="-53.9" font-family="Arial" font-size="14.00" fill="#666666">[varchar(255)]</text>
</g>
<!-- public.class -->
<g id="node4" class="node">
<title>public.class</title>
<polygon fill="#efefef" stroke="transparent" points="1212.5,-162.5 1212.5,-197.5 1446.5,-197.5 1446.5,-162.5 1212.5,-162.5"/>
<polygon fill="none" stroke="#000000" points="1212.5,-162.5 1212.5,-197.5 1446.5,-197.5 1446.5,-162.5 1212.5,-162.5"/>
<text text-anchor="start" x="1219.2112" y="-175.3" font-family="Arial Bold" font-size="18.00" fill="#000000">public.class</text>
<text text-anchor="start" x="1312.2208" y="-175.3" font-family="Arial" font-size="14.00" fill="#000000">    </text>
<text text-anchor="start" x="1346.4256" y="-175.3" font-family="Arial" font-size="14.00" fill="#666666">[BASE TABLE]</text>
<polygon fill="none" stroke="#000000" points="1212.5,-132.5 1212.5,-162.5 1446.5,-162.5 1446.5,-132.5 1212.5,-132.5"/>
<text text-anchor="start" x="1219.5" y="-143.9" font-family="Arial" font-size="14.00" fill="#000000">code    </text>
<text text-anchor="start" x="1284.0526" y="-143.9" font-family="Arial" font-size="14.00" fill="#666666">[varchar(5)]</text>
<polygon fill="none" stroke="#000000" points="1212.5,-102.5 1212.5,-132.5 1446.5,-132.5 1446.5,-102.5 1212.5,-102.5"/>
<text text-anchor="start" x="1219.5" y="-113.9" font-family="Arial" font-size="14.00" fill="#000000">name    </text>
<text text-anchor="start" x="1288.7132" y="-113.9" font-family="Arial" font-size="14.00" fill="#666666">[varchar(255)]</text>
<polygon fill="none" stroke="#000000" points="1212.5,-72.5 1212.5,-102.5 1446.5,-102.5 1446.5,-72.5 1212.5,-72.5"/>
<text text-anchor="start" x="1219.5" y="-83.9" font-family="Arial" font-size="14.00" fill="#000000">credits    </text>
<text text-anchor="start" x="1294.9278" y="-83.9" font-family="Arial" font-size="14.00" fill="#666666">[integer]</text>
</g>
<!-- public.relations -->
<g id="node5" class="node">
<title>public.relations</title>
<polygon fill="#efefef" stroke="transparent" points="1013.5,-469.5 1013.5,-504.5 1274.5,-504.5 1274.5,-469.5 1013.5,-469.5"/>
<polygon fill="none" stroke="#000000" points="1013.5,-469.5 1013.5,-504.5 1274.5,-504.5 1274.5,-469.5 1013.5,-469.5"/>
<text text-anchor="start" x="1020.2076" y="-482.3" font-family="Arial Bold" font-size="18.00" fill="#000000">public.relations</text>
<text text-anchor="start" x="1140.2244" y="-482.3" font-family="Arial" font-size="14.00" fill="#000000">    </text>
<text text-anchor="start" x="1174.4292" y="-482.3" font-family="Arial" font-size="14.00" fill="#666666">[BASE TABLE]</text>
<polygon fill="none" stroke="#000000" points="1013.5,-439.5 1013.5,-469.5 1274.5,-469.5 1274.5,-439.5 1013.5,-439.5"/>
<text text-anchor="start" x="1020.5" y="-450.9" font-family="Arial" font-size="14.00" fill="#000000">uuid    </text>
<text text-anchor="start" x="1081.1592" y="-450.9" font-family="Arial" font-size="14.00" fill="#666666">[uuid]</text>
<polygon fill="none" stroke="#000000" points="1013.5,-409.5 1013.5,-439.5 1274.5,-439.5 1274.5,-409.5 1013.5,-409.5"/>
<text text-anchor="start" x="1020.5" y="-420.9" font-family="Arial" font-size="14.00" fill="#000000">role    </text>
<text text-anchor="start" x="1078.0372" y="-420.9" font-family="Arial" font-size="14.00" fill="#666666">[role_type]</text>
<polygon fill="none" stroke="#000000" points="1013.5,-379.5 1013.5,-409.5 1274.5,-409.5 1274.5,-379.5 1013.5,-379.5"/>
<text text-anchor="start" x="1020.5" y="-390.9" font-family="Arial" font-size="14.00" fill="#000000">person_id    </text>
<text text-anchor="start" x="1116.1676" y="-390.9" font-family="Arial" font-size="14.00" fill="#666666">[uuid]</text>
<polygon fill="none" stroke="#000000" points="1013.5,-349.5 1013.5,-379.5 1274.5,-379.5 1274.5,-349.5 1013.5,-349.5"/>
<text text-anchor="start" x="1020.5" y="-360.9" font-family="Arial" font-size="14.00" fill="#000000">class_code    </text>
<text text-anchor="start" x="1124.7244" y="-360.9" font-family="Arial" font-size="14.00" fill="#666666">[varchar(5)]</text>
</g>
<!-- public.relations&#45;&gt;public.person -->
<g id="edge1" class="edge">
<title>public.relations:person_id&#45;&gt;public.person:id</title>
<path fill="none" stroke="#000000" d="M1003.3213,-392.8654C978.0769,-383.4693 993.6484,-335.7518 1013.5,-307 1039.1543,-269.8439 1082.8457,-308.1561 1108.5,-271 1132.1108,-236.8036 1150.0556,-177.5 1108.5,-177.5"/>
<polygon fill="#000000" stroke="#000000" points="1003.6265,-392.9143 1012.7864,-398.9431 1008.5633,-393.7072 1013.5,-394.5 1013.5,-394.5 1013.5,-394.5 1008.5633,-393.7072 1014.2136,-390.0569 1003.6265,-392.9143 1003.6265,-392.9143"/>
<text text-anchor="start" x="1020.2165" y="-404.5" font-family="Arial" font-size="10.00" fill="#000000">FOREIGN KEY (person_id) REFERENCES person(id)</text>
</g>
<!-- public.relations&#45;&gt;public.class -->
<g id="edge2" class="edge">
<title>public.relations:class_code&#45;&gt;public.class:code</title>
<path fill="none" stroke="#000000" d="M1284.2273,-361.7318C1294.7044,-353.1967 1282.2924,-326.6764 1274.5,-307 1259.6811,-269.5814 1227.3189,-278.4186 1212.5,-241 1197.199,-202.364 1170.9444,-147.5 1212.5,-147.5"/>
<polygon fill="#000000" stroke="#000000" points="1284.1181,-361.7628 1273.2683,-360.1718 1279.3091,-363.1314 1274.5,-364.5 1274.5,-364.5 1274.5,-364.5 1279.3091,-363.1314 1275.7317,-368.8282 1284.1181,-361.7628 1284.1181,-361.7628"/>
<text text-anchor="start" x="1281.1045" y="-374.5" font-family="Arial" font-size="10.00" fill="#000000">FOREIGN KEY (class_code) REFERENCES class(code)</text>
</g>
</g>
</svg>
